<svg width="316" height="77" viewBox="0 0 316 77" fill="none" xmlns="http://www.w3.org/2000/svg">
<path d="M0 14.4367H17.64C28.9275 14.4367 38.045 18.4792 38.045 30.9392C38.045 43.3992 28.84 48.3342 17.955 48.3342H11.6025V65.7467H0V14.4367ZM17.255 39.1292C23.6425 39.1292 26.6525 36.2942 26.6525 30.9392C26.6525 25.5842 23.2225 23.6417 16.94 23.6417H11.6025V39.1292H17.255Z" fill="#CC6884"/>
<path d="M45.0625 14.9245C45.0625 11.372 47.88 8.86953 51.765 8.86953C55.65 8.86953 58.4675 11.372 58.4675 14.9245C58.4675 18.477 55.65 20.9795 51.765 20.9795C47.88 20.9795 45.0625 18.442 45.0625 14.9245ZM45.955 26.6845H57.5225V65.7445H45.955V26.702V26.6845Z" fill="#CC6884"/>
<path d="M67.7141 26.6966H77.1641L78.0041 31.6491H78.2841C81.5741 28.4816 85.5116 25.7516 90.8316 25.7516C99.3366 25.7516 102.942 31.7541 102.942 41.5191V65.7741H91.3741V43.0066C91.3741 37.3891 89.8691 35.6216 86.5266 35.6216C83.6216 35.6216 81.8366 36.9691 79.2991 39.4191V65.7741H67.7316V26.6966H67.7141Z" fill="#CC6884"/>
<path d="M112.749 10.5977H124.072V42.2027H124.369L136.759 26.6977H149.324L135.639 42.7977L150.357 65.7577H137.809L129.024 50.5152L124.072 56.1327V65.7577H112.749V10.5977Z" fill="#CC6884"/>
<path d="M151.43 46.2441C151.43 33.5741 160.477 25.7516 169.857 25.7516C180.987 25.7516 186.5 33.8366 186.5 44.5116C186.5 46.5941 186.237 48.6766 186.01 49.6216H162.63C163.662 55.2916 167.547 57.8816 172.762 57.8816C175.72 57.8816 178.38 56.9891 181.215 55.3266L185.047 62.3091C181.04 65.0741 175.825 66.7191 171.187 66.7191C160.057 66.7191 151.43 59.1941 151.43 46.2616V46.2441ZM176.612 41.9566C176.612 37.6691 174.74 34.5716 170.12 34.5716C166.462 34.5716 163.312 37.0216 162.525 41.9566H176.612Z" fill="#CC6884"/>
<path d="M192.485 46.2452C192.485 33.4702 200.465 25.7527 208.69 25.7527C212.995 25.7527 215.62 27.3627 218.262 29.8302L217.842 23.9152V10.5977H229.41V65.7577H219.96L219.12 61.8902H218.84C216.075 64.6552 212.207 66.7027 208.445 66.7027C198.732 66.7027 192.467 58.9852 192.467 46.2452H192.485ZM217.842 53.7352V37.6877C215.795 35.8502 213.502 35.2202 211.385 35.2202C207.64 35.2202 204.35 38.6852 204.35 46.1052C204.35 53.5252 206.992 57.2352 211.49 57.2352C213.957 57.2352 215.935 56.3077 217.86 53.7352H217.842Z" fill="#CC6884"/>
<path fill-rule="evenodd" clip-rule="evenodd" d="M238.608 6.44C238.608 4.7425 239.291 3.0975 240.498 1.89C241.706 0.6825 243.333 0 245.048 0H309.168C310.008 0 310.848 0.1575 311.636 0.49C312.423 0.805 313.123 1.295 313.718 1.89C314.313 2.485 314.786 3.2025 315.118 3.9725C315.433 4.76 315.608 5.5825 315.608 6.44V70.56C315.608 71.4 315.451 72.24 315.118 73.0275C314.803 73.815 314.313 74.515 313.718 75.11C313.123 75.705 312.406 76.1775 311.636 76.51C310.848 76.825 310.008 77 309.168 77H245.031C244.191 77 243.351 76.825 242.563 76.51C241.776 76.195 241.076 75.705 240.481 75.11C239.886 74.515 239.413 73.7975 239.081 73.0275C238.766 72.24 238.591 71.4175 238.591 70.56V6.44H238.608ZM269.093 29.365H279.523V34.5975C281.028 31.5875 284.878 28.875 290.671 28.875C301.766 28.875 304.391 34.8775 304.391 45.8675V66.2375H293.173V48.37C293.173 42.105 291.668 38.57 287.853 38.57C282.551 38.57 280.346 42.385 280.346 48.37V66.2375H269.111V29.365H269.093ZM249.843 65.7825H261.078V28.875H249.843V65.765V65.7825ZM262.671 16.8525C262.688 17.815 262.513 18.7775 262.163 19.67C261.813 20.5625 261.288 21.385 260.606 22.0675C259.941 22.75 259.136 23.2925 258.243 23.6775C257.351 24.045 256.406 24.2375 255.443 24.2375C254.481 24.2375 253.536 24.045 252.643 23.6775C251.751 23.31 250.946 22.75 250.281 22.0675C249.616 21.385 249.073 20.5625 248.723 19.67C248.373 18.7775 248.198 17.815 248.216 16.8525C248.251 14.9625 249.038 13.1775 250.386 11.8475C251.733 10.5175 253.553 9.7825 255.443 9.7825C257.333 9.7825 259.136 10.5175 260.501 11.8475C261.848 13.16 262.636 14.9625 262.671 16.8525Z" fill="#CC6884"/>
</svg>
